<svg width="250" height="250" viewBox="-125 -125 250 250" role="img" aria-label="Animated bloub avatar" xmlns="http://www.w3.org/2000/svg"><defs><mask id="bot-mask-vg2pv2" maskUnits="userSpaceOnUse" x="-158" y="-158" width="316" height="316"><path d="M96.1 0.33C96.1 3.48 96.1 6.6 96.09 9.78C96.09 12.95 96.09 16.13 96.07 19.4C96.04 22.67 96.03 25.97 95.94 29.38C95.86 32.78 95.78 36.26 95.54 39.83C95.3 43.39 95.06 47.07 94.52 50.75C93.98 54.43 93.37 58.26 92.32 61.89C91.26 65.52 89.98 69.25 88.18 72.54C86.38 75.83 84.13 79.02 81.5 81.65C78.87 84.28 75.69 86.52 72.4 88.32C69.11 90.12 65.38 91.4 61.75 92.46C58.12 93.52 54.29 94.13 50.61 94.66C46.93 95.2 43.25 95.45 39.68 95.68C36.12 95.92 32.64 96 29.23 96.09C25.83 96.17 22.53 96.19 19.26 96.21C15.99 96.24 12.81 96.23 9.63 96.24C6.45 96.24 3.34 96.24 0.19 96.24C-2.96 96.24 -6.08 96.24 -9.26 96.24C-12.44 96.23 -15.62 96.24 -18.88 96.21C-22.15 96.19 -25.46 96.17 -28.86 96.09C-32.26 96 -35.75 95.92 -39.31 95.68C-42.87 95.45 -46.56 95.2 -50.23 94.66C-53.91 94.13 -57.74 93.52 -61.37 92.46C-65 91.4 -68.73 90.12 -72.02 88.32C-75.32 86.52 -78.5 84.28 -81.13 81.65C-83.76 79.02 -86 75.83 -87.8 72.54C-89.61 69.25 -90.89 65.52 -91.94 61.89C-93 58.26 -93.61 54.43 -94.15 50.75C-94.68 47.07 -94.93 43.39 -95.17 39.83C-95.4 36.26 -95.48 32.78 -95.57 29.38C-95.66 25.97 -95.67 22.67 -95.7 19.4C-95.72 16.13 -95.72 12.95 -95.72 9.78C-95.72 6.6 -95.72 3.48 -95.72 0.33C-95.72 -2.82 -95.72 -5.94 -95.72 -9.12C-95.72 -12.3 -95.72 -15.48 -95.7 -18.74C-95.67 -22.01 -95.66 -25.31 -95.57 -28.72C-95.48 -32.12 -95.4 -35.61 -95.17 -39.17C-94.93 -42.73 -94.68 -46.42 -94.15 -50.09C-93.61 -53.77 -93 -57.6 -91.94 -61.23C-90.89 -64.86 -89.61 -68.59 -87.8 -71.88C-86 -75.18 -83.76 -78.36 -81.13 -80.99C-78.5 -83.62 -75.32 -85.86 -72.02 -87.66C-68.73 -89.46 -65 -90.74 -61.37 -91.8C-57.74 -92.86 -53.91 -93.47 -50.23 -94C-46.56 -94.54 -42.87 -94.79 -39.31 -95.02C-35.75 -95.26 -32.26 -95.34 -28.86 -95.43C-25.46 -95.52 -22.15 -95.53 -18.88 -95.55C-15.62 -95.58 -12.44 -95.57 -9.26 -95.58C-6.08 -95.58 -2.96 -95.58 0.19 -95.58C3.34 -95.58 6.45 -95.58 9.63 -95.58C12.81 -95.57 15.99 -95.58 19.26 -95.55C22.53 -95.53 25.83 -95.52 29.23 -95.43C32.64 -95.34 36.12 -95.26 39.68 -95.02C43.25 -94.79 46.93 -94.54 50.61 -94C54.29 -93.47 58.12 -92.86 61.75 -91.8C65.38 -90.74 69.11 -89.46 72.4 -87.66C75.69 -85.86 78.87 -83.62 81.5 -80.99C84.13 -78.36 86.38 -75.18 88.18 -71.88C89.98 -68.59 91.26 -64.86 92.32 -61.23C93.37 -57.6 93.98 -53.77 94.52 -50.09C95.06 -46.42 95.3 -42.73 95.54 -39.17C95.78 -35.61 95.86 -32.12 95.94 -28.72C96.03 -25.31 96.04 -22.01 96.07 -18.74C96.09 -15.48 96.09 -12.3 96.09 -9.12C96.1 -5.94 96.1 -2.82 96.1 0.33Z" fill="#fff"/><path d="M-8.5 -6.5A8.5 8.5 0 0 1 0 -15L0 -15A8.5 8.5 0 0 1 8.5 -6.5L8.5 6.5A8.5 8.5 0 0 1 0 15L0 15A8.5 8.5 0 0 1 -8.5 6.5Z" class="oeil0" opacity="1" fill="#000"/><path d="M-8.5 -6.5A8.5 8.5 0 0 1 0 -15L0 -15A8.5 8.5 0 0 1 8.5 -6.5L8.5 6.5A8.5 8.5 0 0 1 0 15L0 15A8.5 8.5 0 0 1 -8.5 6.5Z" class="oeil1" opacity="1" fill="#000"/></mask></defs><g fill="none" stroke-linecap="round"></g><g opacity="1"><path d="M96.1 0.33C96.1 3.48 96.1 6.6 96.09 9.78C96.09 12.95 96.09 16.13 96.07 19.4C96.04 22.67 96.03 25.97 95.94 29.38C95.86 32.78 95.78 36.26 95.54 39.83C95.3 43.39 95.06 47.07 94.52 50.75C93.98 54.43 93.37 58.26 92.32 61.89C91.26 65.52 89.98 69.25 88.18 72.54C86.38 75.83 84.13 79.02 81.5 81.65C78.87 84.28 75.69 86.52 72.4 88.32C69.11 90.12 65.38 91.4 61.75 92.46C58.12 93.52 54.29 94.13 50.61 94.66C46.93 95.2 43.25 95.45 39.68 95.68C36.12 95.92 32.64 96 29.23 96.09C25.83 96.17 22.53 96.19 19.26 96.21C15.99 96.24 12.81 96.23 9.63 96.24C6.45 96.24 3.34 96.24 0.19 96.24C-2.96 96.24 -6.08 96.24 -9.26 96.24C-12.44 96.23 -15.62 96.24 -18.88 96.21C-22.15 96.19 -25.46 96.17 -28.86 96.09C-32.26 96 -35.75 95.92 -39.31 95.68C-42.87 95.45 -46.56 95.2 -50.23 94.66C-53.91 94.13 -57.74 93.52 -61.37 92.46C-65 91.4 -68.73 90.12 -72.02 88.32C-75.32 86.52 -78.5 84.28 -81.13 81.65C-83.76 79.02 -86 75.83 -87.8 72.54C-89.61 69.25 -90.89 65.52 -91.94 61.89C-93 58.26 -93.61 54.43 -94.15 50.75C-94.68 47.07 -94.93 43.39 -95.17 39.83C-95.4 36.26 -95.48 32.78 -95.57 29.38C-95.66 25.97 -95.67 22.67 -95.7 19.4C-95.72 16.13 -95.72 12.95 -95.72 9.78C-95.72 6.6 -95.72 3.48 -95.72 0.33C-95.72 -2.82 -95.72 -5.94 -95.72 -9.12C-95.72 -12.3 -95.72 -15.48 -95.7 -18.74C-95.67 -22.01 -95.66 -25.31 -95.57 -28.72C-95.48 -32.12 -95.4 -35.61 -95.17 -39.17C-94.93 -42.73 -94.68 -46.42 -94.15 -50.09C-93.61 -53.77 -93 -57.6 -91.94 -61.23C-90.89 -64.86 -89.61 -68.59 -87.8 -71.88C-86 -75.18 -83.76 -78.36 -81.13 -80.99C-78.5 -83.62 -75.32 -85.86 -72.02 -87.66C-68.73 -89.46 -65 -90.74 -61.37 -91.8C-57.74 -92.86 -53.91 -93.47 -50.23 -94C-46.56 -94.54 -42.87 -94.79 -39.31 -95.02C-35.75 -95.26 -32.26 -95.34 -28.86 -95.43C-25.46 -95.52 -22.15 -95.53 -18.88 -95.55C-15.62 -95.58 -12.44 -95.57 -9.26 -95.58C-6.08 -95.58 -2.96 -95.58 0.19 -95.58C3.34 -95.58 6.45 -95.58 9.63 -95.58C12.81 -95.57 15.99 -95.58 19.26 -95.55C22.53 -95.53 25.83 -95.52 29.23 -95.43C32.64 -95.34 36.12 -95.26 39.68 -95.02C43.25 -94.79 46.93 -94.54 50.61 -94C54.29 -93.47 58.12 -92.86 61.75 -91.8C65.38 -90.74 69.11 -89.46 72.4 -87.66C75.69 -85.86 78.87 -83.62 81.5 -80.99C84.13 -78.36 86.38 -75.18 88.18 -71.88C89.98 -68.59 91.26 -64.86 92.32 -61.23C93.37 -57.6 93.98 -53.77 94.52 -50.09C95.06 -46.42 95.3 -42.73 95.54 -39.17C95.78 -35.61 95.86 -32.12 95.94 -28.72C96.03 -25.31 96.04 -22.01 96.07 -18.74C96.09 -15.48 96.09 -12.3 96.09 -9.12C96.1 -5.94 96.1 -2.82 96.1 0.33Z" fill="#f9f9f9"/><g mask="url(#bot-mask-vg2pv2)"><rect x="-158" y="-158" width="316" height="316" fill="#e8483f"/></g></g><g></g><g fill="none" stroke-linecap="round"></g><style>.oeil0,.oeil1{transform-box:view-box;transform-origin:0 0;animation-duration:2.967s;animation-iteration-count:infinite;animation-timing-function:linear;animation-direction:alternate}.oeil0{animation-name:oeil0}.oeil1{animation-name:oeil1}@keyframes oeil0{0%{transform:matrix(0.85,-0.07,0.17,0.97,-50.57,23.35)}1.124%{transform:matrix(0.85,-0.07,0.17,0.97,-50.6,23.42)}2.247%{transform:matrix(0.85,-0.07,0.17,0.97,-50.64,23.48)}3.371%{transform:matrix(0.85,-0.07,0.17,0.97,-50.68,23.54)}4.494%{transform:matrix(0.85,-0.07,0.17,0.97,-50.73,23.59)}5.618%{transform:matrix(0.85,-0.07,0.18,0.97,-50.78,23.64)}6.742%{transform:matrix(0.85,-0.07,0.18,0.97,-50.84,23.68)}7.865%{transform:matrix(0.85,-0.07,0.18,0.97,-50.9,23.71)}8.989%{transform:matrix(0.85,-0.07,0.18,0.97,-50.96,23.74)}10.112%{transform:matrix(0.85,-0.07,0.18,0.97,-51.03,23.76)}11.236%{transform:matrix(0.85,-0.07,0.18,0.97,-51.11,23.77)}12.36%{transform:matrix(0.85,-0.07,0.18,0.97,-51.18,23.77)}13.483%{transform:matrix(0.85,-0.07,0.18,0.97,-51.26,23.77)}14.607%{transform:matrix(0.85,-0.07,0.18,0.97,-51.34,23.77)}15.73%{transform:matrix(0.85,-0.07,0.18,0.97,-51.42,23.76)}16.854%{transform:matrix(0.85,-0.07,0.18,0.97,-51.49,23.75)}17.978%{transform:matrix(0.85,-0.07,0.18,0.97,-51.57,23.74)}19.101%{transform:matrix(0.85,-0.07,0.18,0.97,-51.64,23.73)}20.225%{transform:matrix(0.85,-0.07,0.18,0.97,-51.71,23.72)}21.348%{transform:matrix(0.85,-0.07,0.18,0.97,-51.77,23.71)}22.472%{transform:matrix(0.85,-0.07,0.18,0.97,-51.84,23.7)}23.596%{transform:matrix(0.85,-0.07,0.18,0.97,-51.9,23.69)}24.719%{transform:matrix(0.85,-0.07,0.18,0.97,-51.95,23.69)}25.843%{transform:matrix(0.85,-0.07,0.18,0.97,-52,23.69)}26.966%{transform:matrix(0.84,-0.07,0.18,0.97,-52.05,23.7)}28.09%{transform:matrix(0.84,-0.07,0.18,0.97,-52.1,23.71)}29.213%{transform:matrix(0.84,-0.07,0.18,0.97,-52.14,23.73)}30.337%{transform:matrix(0.84,-0.07,0.18,0.97,-52.18,23.76)}31.461%{transform:matrix(0.84,-0.07,0.18,0.97,-52.23,23.79)}32.584%{transform:matrix(0.84,-0.07,0.18,0.97,-52.27,23.83)}33.708%{transform:matrix(0.84,-0.07,0.18,0.97,-52.32,23.87)}34.831%{transform:matrix(0.84,-0.07,0.18,0.97,-52.37,23.92)}35.955%{transform:matrix(0.84,-0.07,0.18,0.97,-52.43,23.97)}37.079%{transform:matrix(0.84,-0.07,0.18,0.97,-52.49,24.03)}38.202%{transform:matrix(0.84,-0.07,0.18,0.97,-52.55,24.09)}39.326%{transform:matrix(0.84,-0.07,0.18,0.97,-52.63,24.16)}40.449%{transform:matrix(0.84,-0.07,0.18,0.97,-52.71,24.22)}41.573%{transform:matrix(0.84,-0.07,0.19,0.97,-52.79,24.29)}42.697%{transform:matrix(0.84,-0.07,0.19,0.97,-52.89,24.36)}43.82%{transform:matrix(0.84,-0.07,0.19,0.97,-52.99,24.43)}44.944%{transform:matrix(0.84,-0.07,0.19,0.97,-53.1,24.5)}46.067%{transform:matrix(0.84,-0.07,0.19,0.97,-53.21,24.57)}47.191%{transform:matrix(0.84,-0.07,0.19,0.97,-53.33,24.63)}48.315%{transform:matrix(0.84,-0.04,0.19,0.59,-53.45,24.7)}49.438%{transform:matrix(0.84,-0.02,0.19,0.22,-53.57,24.76)}50.562%{transform:matrix(0.84,-0.02,0.19,0.23,-53.7,24.82)}51.685%{transform:matrix(0.83,-0.04,0.19,0.54,-53.82,24.88)}52.809%{transform:matrix(0.83,-0.06,0.19,0.84,-53.94,24.94)}53.933%{transform:matrix(0.83,-0.07,0.19,0.97,-54.05,24.99)}55.056%{transform:matrix(0.83,-0.07,0.19,0.97,-54.16,25.05)}56.18%{transform:matrix(0.83,-0.07,0.19,0.97,-54.25,25.1)}57.303%{transform:matrix(0.83,-0.07,0.19,0.97,-54.34,25.15)}58.427%{transform:matrix(0.83,-0.07,0.19,0.97,-54.41,25.21)}59.551%{transform:matrix(0.83,-0.07,0.19,0.97,-54.47,25.26)}60.674%{transform:matrix(0.83,-0.07,0.19,0.97,-54.52,25.32)}61.798%{transform:matrix(0.83,-0.07,0.19,0.97,-54.54,25.39)}62.921%{transform:matrix(0.83,-0.07,0.19,0.97,-54.55,25.45)}64.045%{transform:matrix(0.83,-0.07,0.19,0.97,-54.54,25.52)}65.169%{transform:matrix(0.83,-0.07,0.19,0.97,-54.52,25.6)}66.292%{transform:matrix(0.83,-0.07,0.19,0.97,-54.47,25.69)}67.416%{transform:matrix(0.83,-0.07,0.19,0.97,-54.41,25.78)}68.539%{transform:matrix(0.83,-0.07,0.19,0.97,-54.33,25.89)}69.663%{transform:matrix(0.83,-0.07,0.19,0.96,-54.23,26)}70.787%{transform:matrix(0.83,-0.07,0.19,0.96,-54.12,26.12)}71.91%{transform:matrix(0.83,-0.07,0.19,0.96,-53.99,26.25)}73.034%{transform:matrix(0.84,-0.07,0.19,0.96,-53.86,26.4)}74.157%{transform:matrix(0.84,-0.07,0.19,0.96,-53.72,26.55)}75.281%{transform:matrix(0.84,-0.07,0.19,0.96,-53.57,26.71)}76.404%{transform:matrix(0.84,-0.07,0.19,0.96,-53.41,26.89)}77.528%{transform:matrix(0.84,-0.07,0.19,0.96,-53.26,27.07)}78.652%{transform:matrix(0.84,-0.07,0.19,0.96,-53.1,27.26)}79.775%{transform:matrix(0.84,-0.06,0.19,0.96,-52.95,27.45)}80.899%{transform:matrix(0.84,-0.06,0.19,0.96,-52.81,27.65)}82.022%{transform:matrix(0.85,-0.06,0.2,0.96,-52.67,27.85)}83.146%{transform:matrix(0.85,-0.06,0.2,0.96,-52.55,28.06)}84.27%{transform:matrix(0.85,-0.06,0.2,0.96,-52.44,28.26)}85.393%{transform:matrix(0.85,-0.06,0.2,0.96,-52.34,28.46)}86.517%{transform:matrix(0.85,-0.06,0.2,0.96,-52.26,28.66)}87.64%{transform:matrix(0.85,-0.06,0.2,0.96,-52.2,28.85)}88.764%{transform:matrix(0.85,-0.06,0.2,0.96,-52.15,29.03)}89.888%{transform:matrix(0.85,-0.06,0.2,0.96,-52.12,29.2)}91.011%{transform:matrix(0.85,-0.06,0.2,0.96,-52.11,29.36)}92.135%{transform:matrix(0.85,-0.06,0.2,0.96,-52.11,29.5)}93.258%{transform:matrix(0.85,-0.06,0.2,0.96,-52.13,29.62)}94.382%{transform:matrix(0.85,-0.06,0.2,0.96,-52.17,29.73)}95.506%{transform:matrix(0.85,-0.06,0.2,0.96,-52.22,29.81)}96.629%{transform:matrix(0.85,-0.06,0.2,0.96,-52.28,29.88)}97.753%{transform:matrix(0.85,-0.06,0.2,0.96,-52.35,29.92)}98.876%{transform:matrix(0.85,-0.06,0.2,0.96,-52.43,29.94)}100%{transform:matrix(0.85,-0.06,0.2,0.96,-52.52,29.94)}}@keyframes oeil1{0%{transform:matrix(0.98,-0.17,0.17,0.97,-2.24,16.02)}1.124%{transform:matrix(0.98,-0.17,0.17,0.97,-2.26,16.07)}2.247%{transform:matrix(0.98,-0.17,0.17,0.97,-2.28,16.11)}3.371%{transform:matrix(0.98,-0.17,0.17,0.97,-2.32,16.16)}4.494%{transform:matrix(0.98,-0.17,0.17,0.97,-2.36,16.2)}5.618%{transform:matrix(0.98,-0.17,0.18,0.97,-2.42,16.23)}6.742%{transform:matrix(0.98,-0.17,0.18,0.97,-2.48,16.26)}7.865%{transform:matrix(0.98,-0.17,0.18,0.97,-2.55,16.29)}8.989%{transform:matrix(0.98,-0.17,0.18,0.97,-2.62,16.32)}10.112%{transform:matrix(0.98,-0.17,0.18,0.97,-2.71,16.34)}11.236%{transform:matrix(0.98,-0.17,0.18,0.97,-2.8,16.36)}12.36%{transform:matrix(0.98,-0.17,0.18,0.97,-2.9,16.38)}13.483%{transform:matrix(0.98,-0.17,0.18,0.97,-3,16.4)}14.607%{transform:matrix(0.98,-0.17,0.18,0.97,-3.1,16.41)}15.73%{transform:matrix(0.98,-0.17,0.18,0.97,-3.21,16.43)}16.854%{transform:matrix(0.98,-0.17,0.18,0.97,-3.31,16.43)}17.978%{transform:matrix(0.98,-0.17,0.18,0.97,-3.41,16.44)}19.101%{transform:matrix(0.98,-0.17,0.18,0.97,-3.51,16.45)}20.225%{transform:matrix(0.98,-0.17,0.18,0.97,-3.61,16.45)}21.348%{transform:matrix(0.98,-0.17,0.18,0.97,-3.7,16.46)}22.472%{transform:matrix(0.98,-0.17,0.18,0.97,-3.79,16.47)}23.596%{transform:matrix(0.98,-0.17,0.18,0.97,-3.87,16.47)}24.719%{transform:matrix(0.98,-0.17,0.18,0.97,-3.94,16.48)}25.843%{transform:matrix(0.98,-0.17,0.18,0.97,-4.01,16.5)}26.966%{transform:matrix(0.98,-0.17,0.18,0.97,-4.07,16.51)}28.09%{transform:matrix(0.98,-0.17,0.18,0.97,-4.13,16.53)}29.213%{transform:matrix(0.98,-0.17,0.18,0.97,-4.19,16.55)}30.337%{transform:matrix(0.98,-0.17,0.18,0.97,-4.24,16.58)}31.461%{transform:matrix(0.98,-0.17,0.18,0.97,-4.29,16.61)}32.584%{transform:matrix(0.98,-0.17,0.18,0.97,-4.33,16.64)}33.708%{transform:matrix(0.98,-0.17,0.18,0.97,-4.38,16.68)}34.831%{transform:matrix(0.98,-0.17,0.18,0.97,-4.44,16.73)}35.955%{transform:matrix(0.98,-0.17,0.18,0.97,-4.49,16.78)}37.079%{transform:matrix(0.98,-0.17,0.18,0.97,-4.55,16.84)}38.202%{transform:matrix(0.98,-0.17,0.18,0.97,-4.62,16.9)}39.326%{transform:matrix(0.98,-0.17,0.18,0.97,-4.7,16.96)}40.449%{transform:matrix(0.98,-0.17,0.18,0.97,-4.78,17.03)}41.573%{transform:matrix(0.98,-0.17,0.19,0.97,-4.88,17.11)}42.697%{transform:matrix(0.98,-0.17,0.19,0.97,-4.99,17.19)}43.82%{transform:matrix(0.98,-0.17,0.19,0.97,-5.1,17.27)}44.944%{transform:matrix(0.98,-0.17,0.19,0.97,-5.23,17.36)}46.067%{transform:matrix(0.98,-0.17,0.19,0.97,-5.36,17.45)}47.191%{transform:matrix(0.98,-0.17,0.19,0.97,-5.5,17.54)}48.315%{transform:matrix(0.98,-0.11,0.19,0.59,-5.65,17.63)}49.438%{transform:matrix(0.98,-0.04,0.19,0.22,-5.8,17.72)}50.562%{transform:matrix(0.98,-0.04,0.19,0.23,-5.95,17.8)}51.685%{transform:matrix(0.98,-0.1,0.19,0.54,-6.1,17.89)}52.809%{transform:matrix(0.98,-0.15,0.19,0.84,-6.25,17.97)}53.933%{transform:matrix(0.98,-0.18,0.19,0.97,-6.39,18.05)}55.056%{transform:matrix(0.98,-0.18,0.19,0.97,-6.52,18.13)}56.18%{transform:matrix(0.98,-0.18,0.19,0.97,-6.64,18.2)}57.303%{transform:matrix(0.98,-0.18,0.19,0.97,-6.74,18.26)}58.427%{transform:matrix(0.98,-0.18,0.19,0.97,-6.83,18.32)}59.551%{transform:matrix(0.98,-0.18,0.19,0.97,-6.89,18.38)}60.674%{transform:matrix(0.98,-0.18,0.19,0.97,-6.93,18.43)}61.798%{transform:matrix(0.98,-0.18,0.19,0.97,-6.94,18.48)}62.921%{transform:matrix(0.98,-0.18,0.19,0.97,-6.92,18.52)}64.045%{transform:matrix(0.98,-0.18,0.19,0.97,-6.88,18.56)}65.169%{transform:matrix(0.98,-0.18,0.19,0.97,-6.81,18.59)}66.292%{transform:matrix(0.98,-0.18,0.19,0.97,-6.71,18.62)}67.416%{transform:matrix(0.98,-0.18,0.19,0.97,-6.58,18.65)}68.539%{transform:matrix(0.98,-0.18,0.19,0.97,-6.42,18.68)}69.663%{transform:matrix(0.98,-0.18,0.19,0.96,-6.24,18.71)}70.787%{transform:matrix(0.98,-0.18,0.19,0.96,-6.03,18.74)}71.91%{transform:matrix(0.98,-0.18,0.19,0.96,-5.81,18.76)}73.034%{transform:matrix(0.98,-0.18,0.19,0.96,-5.56,18.79)}74.157%{transform:matrix(0.98,-0.18,0.19,0.96,-5.31,18.84)}75.281%{transform:matrix(0.98,-0.18,0.19,0.96,-5.06,18.89)}76.404%{transform:matrix(0.98,-0.18,0.19,0.96,-4.79,18.95)}77.528%{transform:matrix(0.98,-0.18,0.19,0.96,-4.53,19.02)}78.652%{transform:matrix(0.98,-0.18,0.19,0.96,-4.26,19.09)}79.775%{transform:matrix(0.98,-0.18,0.19,0.96,-4.01,19.16)}80.899%{transform:matrix(0.98,-0.18,0.19,0.96,-3.76,19.24)}82.022%{transform:matrix(0.98,-0.18,0.2,0.96,-3.52,19.32)}83.146%{transform:matrix(0.98,-0.18,0.2,0.96,-3.31,19.43)}84.27%{transform:matrix(0.98,-0.18,0.2,0.96,-3.11,19.54)}85.393%{transform:matrix(0.98,-0.18,0.2,0.96,-2.93,19.66)}86.517%{transform:matrix(0.98,-0.18,0.2,0.96,-2.78,19.77)}87.64%{transform:matrix(0.98,-0.19,0.2,0.96,-2.64,19.88)}88.764%{transform:matrix(0.98,-0.19,0.2,0.96,-2.53,19.98)}89.888%{transform:matrix(0.98,-0.19,0.2,0.96,-2.45,20.08)}91.011%{transform:matrix(0.98,-0.19,0.2,0.96,-2.39,20.18)}92.135%{transform:matrix(0.98,-0.19,0.2,0.96,-2.36,20.27)}93.258%{transform:matrix(0.98,-0.19,0.2,0.96,-2.35,20.35)}94.382%{transform:matrix(0.98,-0.19,0.2,0.96,-2.36,20.41)}95.506%{transform:matrix(0.98,-0.19,0.2,0.96,-2.4,20.47)}96.629%{transform:matrix(0.98,-0.19,0.2,0.96,-2.45,20.52)}97.753%{transform:matrix(0.98,-0.19,0.2,0.96,-2.53,20.55)}98.876%{transform:matrix(0.98,-0.19,0.2,0.96,-2.62,20.56)}100%{transform:matrix(0.98,-0.19,0.2,0.96,-2.72,20.56)}}</style></svg>